<svg width="355" height="141" viewBox="0 0 355 141" fill="none" xmlns="http://www.w3.org/2000/svg">
<path d="M68.1959 140.977C64.8664 140.977 61.6849 140.292 58.6475 138.928C55.4232 137.399 52.5338 135.085 49.9792 131.985L49.1848 131.033L60.2441 122.126L60.8905 123.07C62.676 125.598 65.1118 126.86 68.1959 126.86C69.738 126.86 71.0386 126.295 72.0978 125.16C73.157 124.028 73.6866 122.649 73.6866 121.022C73.6866 116.87 71.2995 114.501 66.5292 113.917C61.611 113.288 57.6604 111.371 54.6755 108.163C51.6887 104.906 50.1973 100.829 50.1973 95.9333C50.1973 90.8851 52.0275 86.5231 55.688 82.8453C57.3235 81.2135 59.1304 79.9791 61.1086 79.1398C63.1336 78.2453 65.1312 77.797 67.1056 77.797C70.0437 77.797 72.7676 78.4302 75.2754 79.6922C78.0208 81.0584 80.4079 83.0811 82.4328 85.7603L83.2272 86.7887L72.6742 95.1514L72.0199 94.361C70.4779 92.6783 68.8384 91.8369 67.1056 91.8369C65.9003 91.8369 64.9482 92.1917 64.2473 92.8993C63.5502 93.6089 63.2037 94.5948 63.2037 95.8568C63.2037 96.9617 63.6125 97.8583 64.4342 98.5424C65.5401 99.49 67.2964 100.042 69.7068 100.2C74.7225 100.512 78.8911 102.405 82.2148 105.877C85.735 109.555 87.4952 114.314 87.4952 120.155C87.4952 126.093 85.5189 131.088 81.5683 135.138C79.7342 137.031 77.6859 138.45 75.4234 139.396C73.0597 140.45 70.6512 140.977 68.1959 140.977ZM59.8781 125.356L52.4325 131.356C54.5548 133.719 56.9185 135.508 59.5198 136.719C62.1678 137.976 65.0592 138.605 68.1959 138.605C72.7228 138.605 76.6968 136.872 80.1197 133.404C83.5874 129.779 85.3223 125.362 85.3223 120.155C85.3223 115 83.7802 110.819 80.696 107.611C77.756 104.564 74.0468 102.881 69.5666 102.562C66.7726 102.405 64.6055 101.693 63.0635 100.429C61.7122 99.2223 61.0385 97.6989 61.0385 95.8568C61.0385 93.9659 61.6032 92.4276 62.7364 91.242C63.8676 90.0586 65.324 89.4658 67.1056 89.4658C69.1305 89.4658 71.0581 90.3369 72.8922 92.0749L80.0496 86.3892C76.4826 82.2376 72.1679 80.1597 67.1056 80.1597C63.4451 80.1597 60.1215 81.6342 57.1366 84.579C53.9532 87.7363 52.3624 91.5203 52.3624 95.9333C52.3624 100.195 53.6494 103.733 56.2254 106.548C58.8052 109.359 62.3353 111.027 66.8174 111.554C69.7088 111.975 71.9031 112.946 73.3985 114.469C75.034 116.152 75.8518 118.336 75.8518 121.022C75.8518 123.282 75.1041 125.216 73.6087 126.818C72.1173 128.422 70.3143 129.223 68.1959 129.223C66.3151 129.223 64.7243 128.908 63.4217 128.279C62.1172 127.646 60.9373 126.671 59.8781 125.356Z" fill="#5D0A9D"/>
<path d="M121.531 92.2279V139.948H108.158V92.2279H94.8638V78.8169H135.698V92.2279H121.531ZM110.331 89.8652V137.586H119.366V89.8652H133.532V81.188H97.029V89.8652H110.331Z" fill="#5D0A9D"/>
<path d="M172.554 140.977C168.649 140.977 164.891 140.135 161.277 138.452C157.854 136.872 154.77 134.636 152.025 131.747C149.33 128.802 147.258 125.437 145.81 121.65C144.314 117.656 143.567 113.555 143.567 109.344C143.567 105.193 144.314 101.09 145.81 97.0381C147.258 93.3051 149.33 89.9672 152.025 87.0266C154.677 84.1328 157.737 81.8977 161.207 80.3211C164.821 78.6384 168.579 77.797 172.484 77.797C176.388 77.797 180.148 78.6384 183.762 80.3211C187.323 81.9487 190.405 84.1838 193.006 87.0266C195.612 89.8652 197.664 93.2031 199.159 97.0381C200.701 101.039 201.472 105.142 201.472 109.344C201.472 113.606 200.701 117.707 199.159 121.65C197.664 125.543 195.615 128.908 193.014 131.747C190.267 134.636 187.206 136.872 183.832 138.452C180.171 140.135 176.412 140.977 172.554 140.977ZM172.484 80.1597C165.064 80.1597 158.75 83.0025 153.543 88.6839C148.341 94.361 145.74 101.249 145.74 109.344C145.74 117.441 148.341 124.332 153.543 130.013C158.796 135.741 165.134 138.605 172.554 138.605C179.926 138.605 186.24 135.741 191.495 130.013C193.904 127.328 195.806 124.226 197.204 120.707C198.6 117.076 199.299 113.288 199.299 109.344C199.299 101.351 196.698 94.463 191.495 88.6839C186.287 83.0025 179.949 80.1597 172.484 80.1597ZM172.554 129.223C167.636 129.223 163.491 127.306 160.117 123.469C156.746 119.628 155.062 114.919 155.062 109.344C155.062 103.877 156.723 99.1968 160.047 95.3044C163.467 91.412 167.611 89.4658 172.477 89.4658C177.346 89.4658 181.491 91.412 184.914 95.3044C188.289 99.2478 189.977 103.928 189.977 109.344C189.977 114.919 188.289 119.628 184.914 123.469C181.538 127.306 177.418 129.223 172.554 129.223ZM183.326 96.9617C180.339 93.5452 176.725 91.8369 172.484 91.8369C168.242 91.8369 164.628 93.5452 161.643 96.9617C158.703 100.327 157.235 104.455 157.235 109.344C157.235 114.291 158.703 118.446 161.643 121.812C164.628 125.177 168.265 126.86 172.554 126.86C176.795 126.86 180.386 125.177 183.326 121.812C186.31 118.446 187.804 114.291 187.804 109.344C187.804 104.506 186.31 100.378 183.326 96.9617Z" fill="#5D0A9D"/>
<path d="M244.905 125.594L257.265 139.948H239.406L230.59 129.775H226.47V139.948H213.097V78.8169H232.903C239.455 78.8169 245.021 81.1859 249.601 85.9218C254.081 90.6535 256.322 96.3838 256.322 103.115C256.322 108.635 255.189 113.368 252.927 117.316C250.999 120.784 248.326 123.544 244.905 125.594ZM231.532 127.413L240.349 137.586H252.272L241.291 124.803L242.662 124.098C246.275 122.309 249.095 119.626 251.12 116.05C253.145 112.425 254.157 108.112 254.157 103.115C254.157 97.07 252.132 91.9177 248.082 87.6556C243.986 83.3446 238.925 81.188 232.903 81.188H215.27V137.586H224.305V127.413H231.532ZM230.014 118.735H224.305V89.8652H232.179C236.182 89.8652 239.338 91.259 241.649 94.0466C243.771 96.677 244.835 100.013 244.835 104.058C244.835 108.796 243.557 112.425 241.003 114.945C238.396 117.473 234.733 118.735 230.014 118.735ZM226.47 92.2279V116.364H230.014C234.254 116.364 237.436 115.315 239.554 113.211C241.626 111.161 242.662 108.11 242.662 104.058C242.662 100.591 241.793 97.7775 240.06 95.6189C238.226 93.3582 235.6 92.2279 232.179 92.2279H226.47Z" fill="#5D0A9D"/>
<path d="M303.226 126.537V139.948H267.665V78.8169H298.46V92.2279H281.038V100.829H301.279V114.155H281.038V126.537H303.226ZM269.838 81.188V137.586H301.061V128.908H278.873V111.792H299.106V103.191H278.873V89.8652H296.287V81.188H269.838Z" fill="#5D0A9D"/>
<path d="M0.518921 56.644V1.33429H14.9895C21.0117 1.33429 26.4479 2.72596 31.2981 5.50716C33.8993 6.95832 36.1676 8.77067 38.105 10.9463C40.0462 13.1178 41.6038 15.8884 42.7779 19.2581C43.9559 22.6236 44.5458 26.3694 44.5458 30.4934C44.5458 36.3979 43.1926 41.3845 40.4882 45.4512C35.5349 52.913 27.5208 56.644 16.4459 56.644H0.518921ZM14.9116 53.8054C21.3953 53.8054 26.6037 51.719 30.5348 47.5419C34.464 43.3605 36.4305 37.2329 36.4305 29.1591C36.4305 22.921 34.8729 17.5881 31.7576 13.156C28.6423 8.72606 24.6099 5.78762 19.6624 4.34284C15.2173 4.34284 11.3368 4.92713 8.019 6.09358V53.049C9.65453 53.5547 11.9521 53.8054 14.9116 53.8054Z" fill="#5D0A9D"/>
<path d="M67.1171 1.33429V56.644H60.0765V1.33429H67.1171Z" fill="#5D0A9D"/>
<path d="M118.338 32.8306H125.768V54.8083C121.375 56.6992 116.091 57.6468 109.919 57.6468C102.411 57.6468 95.9504 55.4754 90.5415 51.1283C87.8877 48.959 85.7692 46.1056 84.1863 42.5701C82.6072 39.0304 81.8187 35.1146 81.8187 30.8249C81.8187 26.5373 82.4281 22.681 83.6489 19.2581C84.8736 15.831 86.4682 12.9754 88.4309 10.6914C90.3974 8.40949 92.6852 6.45903 95.2923 4.84427C100.141 1.83573 105.475 0.331451 111.297 0.331451C113.54 0.331451 115.962 0.611909 118.564 1.17283C121.169 1.72949 123.161 2.31165 124.537 2.92356L123.774 8.51572C116.883 5.34357 111.167 3.75644 106.624 3.75644C101.468 5.20759 97.3971 8.18852 94.4123 12.6971C91.4255 17.2078 89.934 22.7213 89.934 29.2356C89.934 37.3731 91.8986 43.6558 95.8297 48.0858C99.7589 52.5115 104.938 54.7233 111.367 54.7233C113.922 54.7233 116.245 54.4471 118.338 53.8904V32.8306Z" fill="#5D0A9D"/>
<path d="M150.713 1.33429V56.644H143.672V1.33429H150.713Z" fill="#5D0A9D"/>
<path d="M175.368 10.9379C175.368 13.3919 176.248 15.6632 178.008 17.7538C179.768 19.8403 181.91 21.6781 184.433 23.2695C186.96 24.8566 189.476 26.4714 191.98 28.1138C194.482 29.7583 196.614 31.7767 198.374 34.1734C200.134 36.5658 201.014 39.2089 201.014 42.1027C201.014 46.675 199.468 50.4102 196.38 53.304C193.29 56.1999 189.116 57.6468 183.857 57.6468C178.602 57.6468 173.397 56.5633 168.241 54.3918V50.4654C173.448 53.304 177.877 54.7233 181.528 54.7233C185.177 54.7233 188.024 53.7502 190.064 51.7997C192.105 49.8514 193.125 47.1488 193.125 43.6919C193.125 41.3527 192.284 39.2216 190.601 37.3009C188.919 35.3802 186.875 33.7123 184.472 32.2952C182.073 30.8737 179.675 29.412 177.276 27.9098C174.877 26.4034 172.833 24.4933 171.146 22.1817C169.464 19.87 168.623 17.0718 168.623 13.7849C168.623 10.5002 169.963 7.43639 172.642 4.59781C175.325 1.75499 179.32 0.331451 184.628 0.331451C188.101 0.331451 192.49 1.1962 197.798 2.92356L197.035 8.60071C190.144 5.3712 184.248 3.75644 179.347 3.75644C176.694 5.15023 175.368 7.54474 175.368 10.9379Z" fill="#5D0A9D"/>
<path d="M235.081 56.644H227.651V5.34569C225.916 4.8995 224.179 4.67429 222.441 4.67429L212.106 7.2664L211.646 1.33429H251.078L250.696 7.2664L240.283 4.67429C238.549 4.67429 236.814 4.8995 235.081 5.34569V56.644Z" fill="#5D0A9D"/>
<path d="M257.961 56.644L280.702 0H281.855L304.589 56.644H296.248L290.5 41.6013H267.766L262.096 56.644H257.961ZM268.911 38.4312H289.277L279.168 11.3628L268.911 38.4312Z" fill="#5D0A9D"/>
<path d="M317.6 56.644V1.33429H332.07C337.937 1.33429 342.604 2.42213 346.074 4.5978C349.547 6.76922 351.284 10.0264 351.284 14.3713C351.284 17.4309 350.299 20.091 348.332 22.3516C346.37 24.608 343.628 26.3184 340.108 27.4849C344.754 28.4325 348.264 30.145 350.638 32.6266C353.009 35.104 354.197 37.8172 354.197 40.7684C354.197 43.7217 353.506 46.2416 352.125 48.3322C350.749 50.4187 348.988 52.0186 346.845 53.134C342.509 55.4754 338.069 56.644 333.527 56.644H317.6ZM325.022 26.652H330.536C335.182 26.652 338.513 25.5259 340.529 23.2695C342.542 21.0088 343.55 18.183 343.55 14.7878C343.55 12.5059 342.849 10.4322 341.448 8.5667C340.046 6.69698 337.888 5.29045 334.976 4.34284C331.506 4.34284 328.188 4.8995 325.022 6.00859V26.652ZM325.022 29.0741V52.8876C326.658 53.4442 329.183 53.7204 332.6 53.7204C336.021 53.7204 339.058 52.69 341.712 50.6269C344.37 48.566 345.7 45.6976 345.7 42.0262C345.7 38.3505 344.244 35.2739 341.331 32.7966C338.422 30.3149 334.929 29.0741 330.848 29.0741H325.022Z" fill="#5D0A9D"/>
<path d="M178.623 88.43V72.4057H181.33V67.2831H163.171V72.4057H165.876V88.43C157.735 91.36 151.841 99.727 151.841 109.619C151.841 121.926 160.983 131.91 172.251 131.91C183.518 131.91 192.658 121.926 192.658 109.619C192.671 99.727 186.778 91.36 178.623 88.43Z" fill="white"/>
<mask id="mask0_15_482" style="mask-type:luminance" maskUnits="userSpaceOnUse" x="151" y="66" width="43" height="67">
<path d="M151.347 66.7562H193.191V132.434H151.347V66.7562Z" fill="white"/>
</mask>
<g mask="url(#mask0_15_482)">
<path d="M172.251 132.434C160.73 132.434 151.361 122.202 151.361 109.619C151.361 99.8587 156.99 91.241 165.395 88.0497V72.9305H163.172C162.907 72.9305 162.691 72.6946 162.691 72.4057V67.2831C162.691 66.9941 162.907 66.7562 163.172 66.7562H181.33C181.595 66.7562 181.811 66.9941 181.811 67.2831V72.4057C181.811 72.6946 181.595 72.9305 181.33 72.9305H179.104V88.0497C187.512 91.241 193.139 99.8459 193.139 109.605C193.153 122.202 183.772 132.434 172.251 132.434ZM163.653 71.8809H165.876C166.141 71.8809 166.357 72.1167 166.357 72.4057V88.43C166.357 88.6531 166.227 88.8635 166.022 88.9293C157.831 91.872 152.325 100.188 152.325 109.619C152.325 121.611 161.26 131.385 172.251 131.385C183.242 131.385 192.177 121.611 192.177 109.619C192.177 100.188 186.669 91.872 178.468 88.9421C178.275 88.8783 178.143 88.668 178.143 88.4449V72.4057C178.143 72.1167 178.361 71.8809 178.624 71.8809H180.849V67.8079H163.653V71.8809Z" fill="#11132D"/>
</g>
<path d="M154.945 109.749C154.945 120.113 162.642 128.521 172.13 128.521C181.618 128.521 189.315 120.113 189.315 109.749C189.326 109.749 154.945 109.356 154.945 109.749Z" fill="#4E0398"/>
<path d="M172.142 129.045C162.4 129.045 154.476 120.389 154.476 109.749C154.476 109.605 154.536 109.475 154.62 109.369C154.801 109.171 155.113 108.831 189.34 109.224C189.605 109.224 189.821 109.46 189.821 109.749C189.809 120.389 181.883 129.045 172.142 129.045ZM155.438 110.197C155.654 120.047 163.062 127.996 172.142 127.996C181.197 127.996 188.594 120.088 188.845 110.263C176.388 110.132 158.265 110 155.438 110.197Z" fill="#11132D"/>
<path d="M173.14 72.9836H167.741C167.476 72.9836 167.26 72.7478 167.26 72.4588C167.26 72.1698 167.476 71.9319 167.741 71.9319H173.14C173.405 71.9319 173.621 72.1698 173.621 72.4588C173.621 72.7478 173.405 72.9836 173.14 72.9836Z" fill="#11132D"/>
<path d="M177.566 73.0091H174.764C174.499 73.0091 174.283 72.7733 174.283 72.4843C174.283 72.1953 174.499 71.9595 174.764 71.9595H177.566C177.831 71.9595 178.047 72.1953 178.047 72.4843C178.047 72.7733 177.831 73.0091 177.566 73.0091Z" fill="#11132D"/>
<path d="M176.976 86.0143C176.711 86.0143 176.495 85.7784 176.495 85.4895V72.4843C176.495 72.1953 176.711 71.9595 176.976 71.9595C177.241 71.9595 177.457 72.1953 177.457 72.4843V85.4895C177.457 85.7912 177.241 86.0143 176.976 86.0143Z" fill="#11132D"/>
<path d="M175.424 80.1161C175.161 80.1161 174.943 79.8803 174.943 79.5914V72.6288C174.943 72.3398 175.161 72.104 175.424 72.104C175.689 72.104 175.907 72.3398 175.907 72.6288V79.5914C175.907 79.8803 175.689 80.1161 175.424 80.1161Z" fill="#11132D"/>
<path d="M172.659 77.5028C172.395 77.5028 172.178 77.2648 172.178 76.9759V72.7732C172.178 72.4843 172.395 72.2484 172.659 72.2484C172.924 72.2484 173.14 72.4843 173.14 72.7732V76.9886C173.14 77.2648 172.924 77.5028 172.659 77.5028Z" fill="#11132D"/>
<path d="M175.401 82.4809C175.136 82.4809 174.92 82.2429 174.92 81.954V81.153C174.92 80.864 175.136 80.6282 175.401 80.6282C175.666 80.6282 175.882 80.864 175.882 81.153V81.954C175.882 82.2429 175.666 82.4809 175.401 82.4809Z" fill="#11132D"/>
<path d="M172.671 79.3151C172.406 79.3151 172.19 79.0772 172.19 78.7882V78.3165C172.19 78.0276 172.406 77.7917 172.671 77.7917C172.936 77.7917 173.152 78.0276 173.152 78.3165V78.7882C173.152 79.0772 172.936 79.3151 172.671 79.3151Z" fill="#11132D"/>
<path d="M162.809 94.1709C162.642 94.1709 162.472 94.0668 162.389 93.8947C162.256 93.6461 162.354 93.3168 162.581 93.185L162.955 92.962C163.183 92.8175 163.483 92.9237 163.604 93.1723C163.736 93.423 163.641 93.7502 163.411 93.8819L163.039 94.105C162.967 94.1582 162.881 94.1709 162.809 94.1709Z" fill="#11132D"/>
<path d="M159.382 101.238C159.299 101.238 159.201 101.212 159.118 101.159C158.89 101.002 158.829 100.672 158.974 100.437L159.201 100.044C159.347 99.7928 159.647 99.7269 159.863 99.8842C160.093 100.044 160.151 100.371 160.007 100.607L159.78 101.002C159.696 101.146 159.552 101.238 159.382 101.238Z" fill="#11132D"/>
<path d="M176.976 88.6021C176.711 88.6021 176.495 88.3642 176.495 88.0752V87.0129C176.495 86.7239 176.711 86.4859 176.976 86.4859C177.241 86.4859 177.457 86.7239 177.457 87.0129V88.0752C177.457 88.3642 177.241 88.6021 176.976 88.6021Z" fill="#11132D"/>
<path d="M156.822 102.538C156.785 102.538 156.748 102.538 156.713 102.525C156.448 102.459 156.292 102.183 156.353 101.894C156.845 99.4784 158.107 96.1554 161.294 93.9882C161.524 93.8288 161.812 93.9074 161.956 94.1582C162.1 94.4067 162.028 94.7233 161.801 94.8805C158.901 96.8501 157.747 99.899 157.289 102.117C157.243 102.368 157.038 102.538 156.822 102.538Z" fill="#11132D"/>
<path d="M156.063 108.094C155.8 108.094 155.582 107.858 155.582 107.569V107.516C155.558 106.071 155.739 104.799 155.907 103.983C155.967 103.694 156.22 103.511 156.485 103.577C156.748 103.643 156.906 103.917 156.857 104.206C156.701 104.969 156.532 106.15 156.557 107.491V107.556C156.544 107.858 156.339 108.094 156.063 108.094Z" fill="#11132D"/>
<path d="M157.819 108.187C157.554 108.187 157.338 107.949 157.338 107.66C157.338 107.622 157.387 103.59 158.312 101.724C158.444 101.473 158.734 101.369 158.962 101.514C159.19 101.646 159.287 101.973 159.155 102.223C158.444 103.655 158.288 107.083 158.3 107.66C158.3 107.949 158.084 108.187 157.819 108.187Z" fill="#11132D"/>
<path d="M180.572 123.87C180.405 123.87 180.235 123.766 180.152 123.596C180.019 123.345 180.115 123.018 180.344 122.886L180.656 122.701C180.886 122.557 181.186 122.663 181.306 122.911C181.439 123.162 181.341 123.489 181.114 123.621L180.8 123.806C180.728 123.857 180.656 123.87 180.572 123.87Z" fill="#11132D"/>
<path d="M183.59 118.037C183.507 118.037 183.411 118.012 183.325 117.959C183.098 117.802 183.037 117.474 183.181 117.236L183.374 116.909C183.518 116.659 183.82 116.593 184.036 116.752C184.264 116.909 184.324 117.236 184.18 117.474L183.987 117.802C183.904 117.959 183.748 118.037 183.59 118.037Z" fill="#11132D"/>
<path d="M181.966 123.018C181.811 123.018 181.655 122.924 181.557 122.767C181.413 122.518 181.485 122.202 181.715 122.045C184.157 120.389 185.119 117.829 185.502 115.964C185.563 115.675 185.816 115.503 186.08 115.569C186.345 115.634 186.501 115.911 186.441 116.2C186.02 118.263 184.938 121.099 182.219 122.952C182.136 122.99 182.052 123.018 181.966 123.018Z" fill="#11132D"/>
<path d="M186.345 114.833C186.308 114.833 186.273 114.833 186.236 114.821C185.971 114.755 185.816 114.479 185.864 114.19C185.997 113.546 186.141 112.56 186.116 111.419C186.116 111.419 186.116 111.366 186.116 111.353C186.116 111.064 186.334 110.826 186.596 110.826C186.861 110.826 187.077 111.064 187.077 111.353H186.596L187.077 111.391C187.103 112.626 186.947 113.703 186.801 114.4C186.766 114.676 186.561 114.833 186.345 114.833Z" fill="#11132D"/>
<path d="M184.348 116.646C184.276 116.646 184.192 116.62 184.12 116.58C183.892 116.448 183.795 116.121 183.927 115.87C184.517 114.676 184.649 111.787 184.649 111.3C184.649 111.011 184.866 110.775 185.13 110.775C185.395 110.775 185.611 111.011 185.611 111.3C185.611 111.338 185.551 114.793 184.782 116.37C184.684 116.542 184.517 116.646 184.348 116.646Z" fill="#11132D"/>
<path d="M163.232 115.003C162.967 115.003 162.751 114.768 162.751 114.479V111.865C162.751 111.576 162.967 111.338 163.232 111.338C163.495 111.338 163.713 111.576 163.713 111.865V114.479C163.713 114.768 163.495 115.003 163.232 115.003Z" fill="#FFC13B"/>
<path d="M164.493 113.703H161.968C161.703 113.703 161.487 113.467 161.487 113.178C161.487 112.889 161.703 112.654 161.968 112.654H164.493C164.758 112.654 164.974 112.889 164.974 113.178C164.974 113.467 164.758 113.703 164.493 113.703Z" fill="#FFC13B"/>
<path d="M181.402 96.7843C181.137 96.7843 180.921 96.5484 180.921 96.2595V93.6589C180.921 93.3699 181.137 93.1341 181.402 93.1341C181.666 93.1341 181.883 93.3699 181.883 93.6589V96.2595C181.883 96.5484 181.666 96.7843 181.402 96.7843Z" fill="#4E0398"/>
<path d="M182.665 95.4712H180.14C179.875 95.4712 179.659 95.2354 179.659 94.9464C179.659 94.6574 179.875 94.4216 180.14 94.4216H182.665C182.93 94.4216 183.146 94.6574 183.146 94.9464C183.146 95.2354 182.93 95.4712 182.665 95.4712Z" fill="#4E0398"/>
<path d="M166.238 119.996C165.973 119.996 165.757 119.758 165.757 119.47V116.869C165.757 116.58 165.973 116.344 166.238 116.344C166.503 116.344 166.719 116.58 166.719 116.869V119.47C166.719 119.758 166.503 119.996 166.238 119.996Z" fill="#FFC13B"/>
<path d="M167.5 118.696H164.974C164.71 118.696 164.493 118.458 164.493 118.169C164.493 117.88 164.71 117.644 164.974 117.644H167.5C167.764 117.644 167.981 117.88 167.981 118.169C167.981 118.458 167.764 118.696 167.5 118.696Z" fill="#FFC13B"/>
<path d="M168.066 114.268C167.321 114.268 166.707 113.612 166.707 112.785C166.707 111.969 167.307 111.3 168.066 111.3C168.81 111.3 169.423 111.957 169.423 112.785C169.423 113.599 168.81 114.268 168.066 114.268ZM168.066 112.365C167.848 112.365 167.669 112.56 167.669 112.798C167.669 113.034 167.848 113.231 168.066 113.231C168.282 113.231 168.462 113.034 168.462 112.798C168.462 112.547 168.282 112.365 168.066 112.365Z" fill="#FFC13B"/>
<path d="M185.635 101.04C184.889 101.04 184.276 100.383 184.276 99.557C184.276 98.7432 184.877 98.0718 185.635 98.0718C186.392 98.0718 186.994 98.7284 186.994 99.557C186.994 100.371 186.38 101.04 185.635 101.04ZM185.635 99.1363C185.418 99.1363 185.237 99.3339 185.237 99.5697C185.237 99.8056 185.418 100.003 185.635 100.003C185.851 100.003 186.032 99.8056 186.032 99.5697C186.032 99.3339 185.851 99.1363 185.635 99.1363Z" fill="#4E0398"/>
<path d="M161.764 119.956C161.018 119.956 160.405 119.3 160.405 118.473C160.405 117.657 161.006 116.988 161.764 116.988C162.521 116.988 163.123 117.644 163.123 118.473C163.111 119.287 162.509 119.956 161.764 119.956ZM161.764 118.052C161.548 118.052 161.366 118.248 161.366 118.486C161.366 118.722 161.548 118.919 161.764 118.919C161.98 118.919 162.161 118.722 162.161 118.486C162.161 118.248 161.98 118.052 161.764 118.052Z" fill="#FFC13B"/>
</svg>
