<svg width="325" height="40" viewBox="0 0 325 40" fill="none" xmlns="http://www.w3.org/2000/svg">
<path d="M204.442 40C202.813 40 201.256 39.6709 199.769 39.015C198.191 38.2793 196.777 37.1666 195.526 35.6758L195.137 35.2181L200.55 30.9348L200.867 31.3884C201.741 32.6044 202.933 33.2113 204.442 33.2113C205.197 33.2113 205.834 32.9395 206.352 32.3939C206.871 31.8493 207.13 31.1861 207.13 30.4035C207.13 28.4069 205.962 27.2676 203.627 26.9866C201.219 26.6842 199.286 25.7626 197.825 24.2197C196.363 22.6533 195.633 20.6925 195.633 18.3383C195.633 15.9106 196.529 13.8129 198.32 12.0442C199.121 11.2595 200.005 10.6658 200.974 10.2622C201.965 9.83208 202.942 9.61649 203.909 9.61649C205.347 9.61649 206.68 9.92097 207.908 10.5279C209.251 11.1849 210.42 12.1576 211.411 13.4461L211.8 13.9406L206.634 17.9623L206.314 17.5822C205.559 16.773 204.757 16.3684 203.909 16.3684C203.319 16.3684 202.853 16.539 202.51 16.8793C202.169 17.2205 201.999 17.6946 201.999 18.3016C201.999 18.8329 202.199 19.2641 202.601 19.5931C203.143 20.0488 204.002 20.3145 205.182 20.3901C207.637 20.5403 209.677 21.4507 211.304 23.1203C213.027 24.8889 213.889 27.1777 213.889 29.9866C213.889 32.8424 212.921 35.2446 210.988 37.1921C210.09 38.1025 209.087 38.7851 207.98 39.2398C206.823 39.7466 205.644 40 204.442 40ZM200.371 32.4879L196.727 35.3734C197.766 36.5096 198.923 37.3699 200.196 37.9523C201.492 38.5572 202.907 38.8597 204.442 38.8597C206.658 38.8597 208.603 38.0259 210.279 36.3584C211.976 34.6152 212.825 32.4909 212.825 29.9866C212.825 27.5077 212.07 25.4969 210.561 23.954C209.122 22.4888 207.306 21.6795 205.113 21.5263C203.746 21.4507 202.685 21.1084 201.93 20.5004C201.269 19.9201 200.939 19.1874 200.939 18.3016C200.939 17.3922 201.216 16.6524 201.77 16.0823C202.324 15.5131 203.037 15.2281 203.909 15.2281C204.9 15.2281 205.843 15.647 206.741 16.4828L210.244 13.7485C208.498 11.752 206.387 10.7527 203.909 10.7527C202.117 10.7527 200.49 11.4618 199.029 12.878C197.471 14.3963 196.693 16.2161 196.693 18.3383C196.693 20.388 197.323 22.0893 198.583 23.4431C199.846 24.7949 201.574 25.597 203.768 25.8504C205.183 26.0527 206.257 26.5197 206.989 27.2523C207.789 28.0616 208.19 29.1119 208.19 30.4035C208.19 31.4906 207.824 32.4204 207.092 33.1909C206.362 33.9623 205.479 34.3475 204.442 34.3475C203.522 34.3475 202.743 34.1963 202.106 33.8938C201.467 33.5893 200.89 33.1204 200.371 32.4879Z" fill="#5D0A9D"/>
<path d="M230.547 16.5564V39.5055H224.002V16.5564H217.495V10.107H237.481V16.5564H230.547ZM225.066 15.4202V38.3693H229.488V15.4202H236.422V11.2473H218.555V15.4202H225.066Z" fill="#5D0A9D"/>
<path d="M255.521 40C253.609 40 251.77 39.5953 250.001 38.7861C248.326 38.0259 246.816 36.951 245.473 35.5614C244.154 34.1452 243.14 32.5267 242.431 30.7059C241.699 28.785 241.333 26.8129 241.333 24.7878C241.333 22.7912 241.699 20.8182 242.431 18.8697C243.14 17.0744 244.154 15.4692 245.473 14.0551C246.771 12.6634 248.269 11.5885 249.967 10.8304C251.736 10.0211 253.575 9.61649 255.487 9.61649C257.397 9.61649 259.238 10.0211 261.006 10.8304C262.749 11.613 264.258 12.6879 265.531 14.0551C266.806 15.4202 267.811 17.0254 268.543 18.8697C269.297 20.7937 269.675 22.7667 269.675 24.7878C269.675 26.8375 269.297 28.8095 268.543 30.7059C267.811 32.5778 266.808 34.1963 265.535 35.5614C264.19 36.951 262.692 38.0259 261.041 38.7861C259.249 39.5953 257.409 40 255.521 40ZM255.487 10.7527C251.855 10.7527 248.764 12.1198 246.216 14.8521C243.67 17.5822 242.396 20.8948 242.396 24.7878C242.396 28.6818 243.67 31.9954 246.216 34.7276C248.787 37.4823 251.889 38.8597 255.521 38.8597C259.129 38.8597 262.22 37.4823 264.792 34.7276C265.971 33.4361 266.902 31.9443 267.586 30.2522C268.269 28.506 268.611 26.6842 268.611 24.7878C268.611 20.9439 267.338 17.6313 264.792 14.8521C262.242 12.1198 259.14 10.7527 255.487 10.7527ZM255.521 34.3475C253.114 34.3475 251.085 33.4259 249.433 31.5805C247.784 29.7332 246.959 27.4689 246.959 24.7878C246.959 22.1588 247.772 19.9078 249.399 18.0359C251.073 16.164 253.101 15.2281 255.483 15.2281C257.866 15.2281 259.895 16.164 261.571 18.0359C263.222 19.9323 264.048 22.1833 264.048 24.7878C264.048 27.4689 263.222 29.7332 261.571 31.5805C259.918 33.4259 257.902 34.3475 255.521 34.3475ZM260.793 18.8329C259.331 17.1899 257.562 16.3684 255.487 16.3684C253.41 16.3684 251.641 17.1899 250.18 18.8329C248.741 20.4514 248.023 22.4367 248.023 24.7878C248.023 27.1665 248.741 29.1651 250.18 30.7836C251.641 32.402 253.422 33.2113 255.521 33.2113C257.597 33.2113 259.354 32.402 260.793 30.7836C262.254 29.1651 262.985 27.1665 262.985 24.7878C262.985 22.4612 262.254 20.4759 260.793 18.8329Z" fill="#5D0A9D"/>
<path d="M290.933 32.6024L296.982 39.5055H288.242L283.926 34.6132H281.91V39.5055H275.365V10.107H285.059C288.265 10.107 290.99 11.2463 293.232 13.5238C295.424 15.7993 296.521 18.555 296.521 21.792C296.521 24.4466 295.967 26.7231 294.859 28.6215C293.916 30.2891 292.607 31.6164 290.933 32.6024ZM284.388 33.477L288.703 38.3693H294.539L289.164 32.2223L289.835 31.883C291.604 31.0227 292.984 29.7322 293.975 28.0126C294.966 26.2694 295.462 24.1952 295.462 21.792C295.462 18.8851 294.47 16.4073 292.488 14.3576C290.483 12.2844 288.006 11.2473 285.059 11.2473H276.428V38.3693H280.85V33.477H284.388ZM283.644 29.3041H280.85V15.4202H284.704C286.663 15.4202 288.208 16.0905 289.339 17.4311C290.378 18.696 290.899 20.3002 290.899 22.2457C290.899 24.5242 290.273 26.2694 289.023 27.4812C287.747 28.6972 285.954 29.3041 283.644 29.3041ZM281.91 16.5564V28.1638H283.644C285.72 28.1638 287.277 27.659 288.314 26.6475C289.328 25.6615 289.835 24.1942 289.835 22.2457C289.835 20.5781 289.41 19.2253 288.562 18.1872C287.664 17.1 286.379 16.5564 284.704 16.5564H281.91Z" fill="#5D0A9D"/>
<path d="M319.479 33.056V39.5055H302.073V10.107H317.146V16.5564H308.618V20.6926H318.526V27.1011H308.618V33.056H319.479ZM303.137 11.2473V38.3693H318.419V34.1963H307.559V25.9649H317.462V21.8288H307.559V15.4202H316.082V11.2473H303.137Z" fill="#5D0A9D"/>
<path d="M6.92828 38.7423V10.8425H14.2171C17.2505 10.8425 19.9887 11.5445 22.4317 12.9474C23.7419 13.6794 24.8845 14.5936 25.8603 15.6911C26.8381 16.7864 27.6227 18.184 28.2141 19.8838C28.8074 21.5814 29.1046 23.4709 29.1046 25.5512C29.1046 28.5296 28.423 31.045 27.0607 33.0963C24.5658 36.8603 20.5291 38.7423 14.9507 38.7423H6.92828ZM14.1779 37.3104C17.4437 37.3104 20.0671 36.258 22.0472 34.1509C24.0264 32.0417 25.0169 28.9508 25.0169 24.8781C25.0169 21.7315 24.2323 19.0414 22.6631 16.8057C21.094 14.5711 19.0629 13.0889 16.5708 12.3601C14.3318 12.3601 12.3772 12.6548 10.7061 13.2432V36.9289C11.5299 37.184 12.6871 37.3104 14.1779 37.3104Z" fill="#5D0A9D"/>
<path d="M40.4737 10.8425V38.7423H36.9274V10.8425H40.4737Z" fill="#5D0A9D"/>
<path d="M66.2735 26.7301H70.016V37.8163C67.8034 38.7702 65.1417 39.2482 62.0328 39.2482C58.2511 39.2482 54.9971 38.1529 52.2726 35.9601C50.9358 34.8658 49.8688 33.4264 49.0715 31.643C48.2761 29.8575 47.8789 27.8823 47.8789 25.7184C47.8789 23.5556 48.1859 21.6104 48.8008 19.8838C49.4177 18.1551 50.2209 16.7147 51.2095 15.5625C52.2 14.4115 53.3524 13.4276 54.6656 12.6131C57.1076 11.0955 59.7948 10.3367 62.7272 10.3367C63.857 10.3367 65.077 10.4781 66.3873 10.7611C67.6995 11.0419 68.7028 11.3355 69.3962 11.6442L69.0117 14.465C65.5409 12.8649 62.6615 12.0643 60.3734 12.0643C57.7764 12.7963 55.7257 14.3 54.2223 16.5743C52.7178 18.8496 51.9666 21.6308 51.9666 24.9167C51.9666 29.0215 52.9562 32.1907 54.9362 34.4253C56.9154 36.6578 59.5241 37.7735 62.7625 37.7735C64.0492 37.7735 65.2192 37.6341 66.2735 37.3533V26.7301Z" fill="#5D0A9D"/>
<path d="M82.5807 10.8425V38.7423H79.0344V10.8425H82.5807Z" fill="#5D0A9D"/>
<path d="M94.9994 15.6868C94.9994 16.9247 95.4427 18.0704 96.3293 19.125C97.2158 20.1775 98.2946 21.1045 99.5657 21.9073C100.839 22.7079 102.106 23.5224 103.367 24.3509C104.627 25.1804 105.701 26.1986 106.588 27.4075C107.474 28.6143 107.918 29.9475 107.918 31.4073C107.918 33.7137 107.139 35.5978 105.583 37.0575C104.027 38.5183 101.924 39.2482 99.2754 39.2482C96.6284 39.2482 94.0069 38.7016 91.4099 37.6063V35.6257C94.0324 37.0575 96.2636 37.7735 98.1024 37.7735C99.9403 37.7735 101.374 37.2826 102.402 36.2987C103.43 35.3159 103.944 33.9527 103.944 32.2089C103.944 31.0289 103.52 29.954 102.673 28.9851C101.825 28.0162 100.796 27.1749 99.5853 26.4601C98.377 25.7431 97.1688 25.0057 95.9605 24.248C94.7522 23.4881 93.7225 22.5246 92.8732 21.3585C92.0258 20.1925 91.6021 18.781 91.6021 17.123C91.6021 15.4661 92.2769 13.9206 93.6264 12.4887C94.9778 11.0547 96.9903 10.3367 99.6637 10.3367C101.413 10.3367 103.624 10.7729 106.297 11.6442L105.913 14.5079C102.442 12.8789 99.4725 12.0643 97.004 12.0643C95.6673 12.7674 94.9994 13.9753 94.9994 15.6868Z" fill="#5D0A9D"/>
<path d="M125.077 38.7423H121.334V12.866C120.461 12.6409 119.586 12.5273 118.71 12.5273L113.504 13.8348L113.273 10.8425H133.135L132.942 13.8348L127.697 12.5273C126.824 12.5273 125.95 12.6409 125.077 12.866V38.7423Z" fill="#5D0A9D"/>
<path d="M136.601 38.7423L148.056 10.1695H148.637L160.088 38.7423H155.886L152.991 31.1543H141.54L138.684 38.7423H136.601ZM142.117 29.5553H152.375L147.283 15.9012L142.117 29.5553Z" fill="#5D0A9D"/>
<path d="M166.642 38.7423V10.8425H173.93C176.885 10.8425 179.236 11.3912 180.984 12.4887C182.733 13.584 183.608 15.227 183.608 17.4188C183.608 18.9621 183.112 20.3039 182.121 21.4442C181.133 22.5824 179.752 23.4452 177.979 24.0336C180.319 24.5116 182.087 25.3754 183.283 26.6272C184.477 27.8769 185.075 29.2455 185.075 30.7342C185.075 32.2239 184.727 33.495 184.032 34.5496C183.339 35.6021 182.452 36.4091 181.372 36.9717C179.188 38.1528 176.952 38.7423 174.664 38.7423H166.642ZM170.38 23.6135H173.158C175.498 23.6135 177.176 23.0454 178.191 21.9072C179.205 20.7669 179.713 19.3415 179.713 17.6288C179.713 16.4778 179.36 15.4317 178.654 14.4907C177.947 13.5476 176.861 12.8381 175.394 12.3601C173.646 12.3601 171.975 12.6409 170.38 13.2003V23.6135ZM170.38 24.8353V36.8474C171.204 37.1282 172.476 37.2676 174.197 37.2676C175.92 37.2676 177.45 36.7478 178.787 35.7071C180.126 34.6675 180.796 33.2206 180.796 31.3686C180.796 29.5145 180.062 27.9626 178.595 26.713C177.13 25.4612 175.37 24.8353 173.315 24.8353H170.38Z" fill="#5D0A9D"/>
<path d="M258.491 14.73V7.0238H259.816V4.5603H250.928V7.0238H252.252V14.73C248.268 16.139 245.383 20.1628 245.383 24.9202C245.383 30.8383 249.857 35.6396 255.372 35.6396C260.887 35.6396 265.36 30.8383 265.36 24.9202C265.367 20.1628 262.482 16.139 258.491 14.73Z" fill="white"/>
<mask id="mask0_14_2439" style="mask-type:luminance" maskUnits="userSpaceOnUse" x="245" y="4" width="21" height="32">
<path d="M245.141 4.30688H265.622V35.892H245.141V4.30688Z" fill="white"/>
</mask>
<g mask="url(#mask0_14_2439)">
<path d="M255.372 35.892C249.733 35.892 245.148 30.9711 245.148 24.9202C245.148 20.2261 247.903 16.0818 252.017 14.5471V7.27616H250.928C250.799 7.27616 250.693 7.16274 250.693 7.02378V4.56028C250.693 4.42132 250.799 4.30688 250.928 4.30688H259.816C259.946 4.30688 260.051 4.42132 260.051 4.56028V7.02378C260.051 7.16274 259.946 7.27616 259.816 7.27616H258.727V14.5471C262.842 16.0818 265.596 20.22 265.596 24.913C265.603 30.9711 261.011 35.892 255.372 35.892ZM251.164 6.7714H252.252C252.382 6.7714 252.487 6.88482 252.487 7.02378V14.73C252.487 14.8373 252.424 14.9384 252.324 14.9701C248.314 16.3853 245.619 20.3845 245.619 24.9202C245.619 30.687 249.993 35.3872 255.372 35.3872C260.752 35.3872 265.125 30.687 265.125 24.9202C265.125 20.3845 262.429 16.3853 258.415 14.9762C258.321 14.9456 258.256 14.8444 258.256 14.7372V7.02378C258.256 6.88482 258.363 6.7714 258.491 6.7714H259.581V4.81266H251.164V6.7714Z" fill="#11132D"/>
</g>
<path d="M246.902 24.9825C246.902 29.9667 250.669 34.0099 255.313 34.0099C259.957 34.0099 263.724 29.9667 263.724 24.9825C263.73 24.9825 246.902 24.7935 246.902 24.9825Z" fill="#4E0398"/>
<path d="M255.319 34.2622C250.551 34.2622 246.672 30.0995 246.672 24.9825C246.672 24.913 246.702 24.8507 246.743 24.7996C246.831 24.7045 246.984 24.5411 263.737 24.7301C263.866 24.7301 263.972 24.8435 263.972 24.9825C263.966 30.0995 260.087 34.2622 255.319 34.2622ZM247.143 25.1981C247.249 29.935 250.875 33.7575 255.319 33.7575C259.751 33.7575 263.372 29.9544 263.495 25.2297C257.397 25.1664 248.527 25.103 247.143 25.1981Z" fill="#11132D"/>
<path d="M255.808 7.30174H253.165C253.035 7.30174 252.93 7.18832 252.93 7.04936C252.93 6.9104 253.035 6.79596 253.165 6.79596H255.808C255.937 6.79596 256.043 6.9104 256.043 7.04936C256.043 7.18832 255.937 7.30174 255.808 7.30174Z" fill="#11132D"/>
<path d="M257.974 7.31396H256.603C256.473 7.31396 256.367 7.20054 256.367 7.06158C256.367 6.92262 256.473 6.8092 256.603 6.8092H257.974C258.103 6.8092 258.209 6.92262 258.209 7.06158C258.209 7.20054 258.103 7.31396 257.974 7.31396Z" fill="#11132D"/>
<path d="M257.685 13.5682C257.555 13.5682 257.45 13.4548 257.45 13.3159V7.06158C257.45 6.92262 257.555 6.8092 257.685 6.8092C257.815 6.8092 257.92 6.92262 257.92 7.06158V13.3159C257.92 13.461 257.815 13.5682 257.685 13.5682Z" fill="#11132D"/>
<path d="M256.926 10.7318C256.797 10.7318 256.69 10.6184 256.69 10.4795V7.1311C256.69 6.99214 256.797 6.87872 256.926 6.87872C257.055 6.87872 257.162 6.99214 257.162 7.1311V10.4795C257.162 10.6184 257.055 10.7318 256.926 10.7318Z" fill="#11132D"/>
<path d="M255.572 9.475C255.443 9.475 255.337 9.36056 255.337 9.2216V7.20053C255.337 7.06157 255.443 6.94815 255.572 6.94815C255.702 6.94815 255.808 7.06157 255.808 7.20053V9.22773C255.808 9.36056 255.702 9.475 255.572 9.475Z" fill="#11132D"/>
<path d="M256.914 11.869C256.785 11.869 256.679 11.7546 256.679 11.6156V11.2304C256.679 11.0915 256.785 10.9781 256.914 10.9781C257.044 10.9781 257.15 11.0915 257.15 11.2304V11.6156C257.15 11.7546 257.044 11.869 256.914 11.869Z" fill="#11132D"/>
<path d="M255.578 10.3466C255.448 10.3466 255.343 10.2322 255.343 10.0932V9.86639C255.343 9.72743 255.448 9.61401 255.578 9.61401C255.708 9.61401 255.813 9.72743 255.813 9.86639V10.0932C255.813 10.2322 255.708 10.3466 255.578 10.3466Z" fill="#11132D"/>
<path d="M250.751 17.4908C250.669 17.4908 250.586 17.4408 250.545 17.358C250.48 17.2384 250.528 17.0801 250.64 17.0167L250.823 16.9094C250.934 16.84 251.081 16.891 251.14 17.0106C251.205 17.1312 251.158 17.2885 251.046 17.3519L250.864 17.4591C250.828 17.4847 250.786 17.4908 250.751 17.4908Z" fill="#11132D"/>
<path d="M249.074 20.8893C249.033 20.8893 248.985 20.877 248.944 20.8515C248.833 20.7759 248.803 20.6175 248.874 20.5041L248.985 20.315C249.057 20.1945 249.203 20.1628 249.309 20.2384C249.422 20.315 249.45 20.4724 249.38 20.5858L249.268 20.7759C249.227 20.8453 249.157 20.8893 249.074 20.8893Z" fill="#11132D"/>
<path d="M257.685 14.8128C257.555 14.8128 257.45 14.6983 257.45 14.5594V14.0485C257.45 13.9095 257.555 13.7951 257.685 13.7951C257.815 13.7951 257.92 13.9095 257.92 14.0485V14.5594C257.92 14.6983 257.815 14.8128 257.685 14.8128Z" fill="#11132D"/>
<path d="M247.821 21.5146C247.803 21.5146 247.784 21.5146 247.767 21.5084C247.638 21.4768 247.561 21.3439 247.591 21.205C247.832 20.0432 248.45 18.4452 250.01 17.403C250.122 17.3263 250.263 17.3641 250.334 17.4847C250.404 17.6042 250.369 17.7565 250.257 17.8321C248.838 18.7793 248.273 20.2455 248.049 21.3123C248.027 21.4328 247.926 21.5146 247.821 21.5146Z" fill="#11132D"/>
<path d="M247.449 24.1865C247.32 24.1865 247.214 24.0731 247.214 23.9341V23.9086C247.202 23.2138 247.291 22.6017 247.373 22.2094C247.402 22.0704 247.526 21.9825 247.656 22.0142C247.784 22.0459 247.862 22.1777 247.838 22.3167C247.762 22.6835 247.679 23.2516 247.691 23.8963V23.928C247.684 24.0731 247.584 24.1865 247.449 24.1865Z" fill="#11132D"/>
<path d="M248.309 24.2315C248.179 24.2315 248.073 24.117 248.073 23.9781C248.073 23.9597 248.097 22.0204 248.55 21.1232C248.614 21.0027 248.756 20.9526 248.868 21.0221C248.979 21.0854 249.027 21.2428 248.962 21.3634C248.614 22.052 248.538 23.7002 248.544 23.9781C248.544 24.117 248.438 24.2315 248.309 24.2315Z" fill="#11132D"/>
<path d="M259.445 31.7732C259.363 31.7732 259.28 31.7231 259.239 31.6414C259.175 31.5208 259.221 31.3635 259.334 31.3001L259.486 31.2112C259.599 31.1417 259.745 31.1928 259.805 31.3124C259.869 31.4329 259.822 31.5903 259.71 31.6536L259.557 31.7425C259.521 31.7671 259.486 31.7732 259.445 31.7732Z" fill="#11132D"/>
<path d="M260.922 28.9684C260.881 28.9684 260.835 28.9562 260.793 28.9306C260.681 28.855 260.652 28.6977 260.722 28.5832L260.817 28.4259C260.887 28.3053 261.035 28.2736 261.141 28.3503C261.252 28.4259 261.282 28.5832 261.211 28.6977L261.117 28.855C261.076 28.9306 261 28.9684 260.922 28.9684Z" fill="#11132D"/>
<path d="M260.128 31.3635C260.051 31.3635 259.975 31.3185 259.927 31.2429C259.857 31.1233 259.892 30.9711 260.005 30.8955C261.2 30.0995 261.671 28.8683 261.858 27.9712C261.888 27.8322 262.012 27.7494 262.141 27.7811C262.271 27.8128 262.347 27.9456 262.318 28.0846C262.112 29.0767 261.582 30.4408 260.252 31.3318C260.211 31.3502 260.17 31.3635 260.128 31.3635Z" fill="#11132D"/>
<path d="M262.271 27.4276C262.253 27.4276 262.236 27.4276 262.218 27.4215C262.088 27.3898 262.012 27.2569 262.035 27.118C262.1 26.8084 262.171 26.3343 262.158 25.7856C262.158 25.7856 262.158 25.76 262.158 25.7539C262.158 25.615 262.265 25.5005 262.394 25.5005C262.523 25.5005 262.629 25.615 262.629 25.7539H262.394L262.629 25.7723C262.642 26.366 262.565 26.884 262.494 27.2191C262.477 27.352 262.377 27.4276 262.271 27.4276Z" fill="#11132D"/>
<path d="M261.293 28.2991C261.258 28.2991 261.217 28.2869 261.182 28.2675C261.07 28.2041 261.022 28.0468 261.087 27.9262C261.376 27.352 261.441 25.9623 261.441 25.7284C261.441 25.5894 261.547 25.476 261.676 25.476C261.806 25.476 261.912 25.5894 261.912 25.7284C261.912 25.7468 261.882 27.4082 261.506 28.1663C261.458 28.2491 261.376 28.2991 261.293 28.2991Z" fill="#11132D"/>
<path d="M250.958 27.5094C250.828 27.5094 250.723 27.3959 250.723 27.257V26.0002C250.723 25.8612 250.828 25.7468 250.958 25.7468C251.087 25.7468 251.193 25.8612 251.193 26.0002V27.257C251.193 27.3959 251.087 27.5094 250.958 27.5094Z" fill="#FFC13B"/>
<path d="M251.575 26.884H250.339C250.21 26.884 250.104 26.7706 250.104 26.6317C250.104 26.4927 250.21 26.3793 250.339 26.3793H251.575C251.705 26.3793 251.811 26.4927 251.811 26.6317C251.811 26.7706 251.705 26.884 251.575 26.884Z" fill="#FFC13B"/>
<path d="M259.851 18.7476C259.722 18.7476 259.616 18.6342 259.616 18.4952V17.2446C259.616 17.1056 259.722 16.9922 259.851 16.9922C259.981 16.9922 260.087 17.1056 260.087 17.2446V18.4952C260.087 18.6342 259.981 18.7476 259.851 18.7476Z" fill="#4E0398"/>
<path d="M260.47 18.1161H259.234C259.104 18.1161 258.998 18.0027 258.998 17.8638C258.998 17.7248 259.104 17.6114 259.234 17.6114H260.47C260.599 17.6114 260.705 17.7248 260.705 17.8638C260.705 18.0027 260.599 18.1161 260.47 18.1161Z" fill="#4E0398"/>
<path d="M252.429 29.9105C252.3 29.9105 252.194 29.7961 252.194 29.6571V28.4065C252.194 28.2675 252.3 28.1541 252.429 28.1541C252.559 28.1541 252.665 28.2675 252.665 28.4065V29.6571C252.665 29.7961 252.559 29.9105 252.429 29.9105Z" fill="#FFC13B"/>
<path d="M253.047 29.2852H251.811C251.681 29.2852 251.575 29.1707 251.575 29.0318C251.575 28.8928 251.681 28.7794 251.811 28.7794H253.047C253.176 28.7794 253.282 28.8928 253.282 29.0318C253.282 29.1707 253.176 29.2852 253.047 29.2852Z" fill="#FFC13B"/>
<path d="M253.324 27.1558C252.959 27.1558 252.659 26.8401 252.659 26.4426C252.659 26.0502 252.953 25.7284 253.324 25.7284C253.688 25.7284 253.988 26.0441 253.988 26.4426C253.988 26.8339 253.688 27.1558 253.324 27.1558ZM253.324 26.2403C253.217 26.2403 253.13 26.3343 253.13 26.4487C253.13 26.5621 253.217 26.6572 253.324 26.6572C253.43 26.6572 253.518 26.5621 253.518 26.4487C253.518 26.3281 253.43 26.2403 253.324 26.2403Z" fill="#FFC13B"/>
<path d="M261.923 20.7942C261.558 20.7942 261.258 20.4785 261.258 20.081C261.258 19.6897 261.552 19.3668 261.923 19.3668C262.294 19.3668 262.588 19.6825 262.588 20.081C262.588 20.4724 262.288 20.7942 261.923 20.7942ZM261.923 19.8787C261.817 19.8787 261.729 19.9738 261.729 20.0872C261.729 20.2006 261.817 20.2956 261.923 20.2956C262.029 20.2956 262.117 20.2006 262.117 20.0872C262.117 19.9738 262.029 19.8787 261.923 19.8787Z" fill="#4E0398"/>
<path d="M250.239 29.8911C249.874 29.8911 249.574 29.5753 249.574 29.1779C249.574 28.7855 249.869 28.4637 250.239 28.4637C250.61 28.4637 250.905 28.7794 250.905 29.1779C250.899 29.5692 250.604 29.8911 250.239 29.8911ZM250.239 28.9756C250.134 28.9756 250.045 29.0696 250.045 29.184C250.045 29.2974 250.134 29.3924 250.239 29.3924C250.345 29.3924 250.434 29.2974 250.434 29.184C250.434 29.0696 250.345 28.9756 250.239 28.9756Z" fill="#FFC13B"/>
</svg>
